<svg width="220" height="58" viewBox="0 0 220 58" fill="none" xmlns="http://www.w3.org/2000/svg">
<g clip-path="url(#clip0_864_1658)">
<path d="M186.002 40C184.759 40 183.682 39.7753 182.77 39.3259C181.858 38.8765 181.159 38.2382 180.672 37.4109C180.185 36.5836 179.941 35.6133 179.941 34.5V32.5084H184.386V34.6685C184.386 35.1894 184.521 35.6133 184.79 35.9401C185.06 36.2567 185.459 36.415 185.987 36.415C186.464 36.415 186.826 36.2874 187.075 36.032C187.334 35.7767 187.463 35.4499 187.463 35.0515V33.5961C187.463 33.065 187.36 32.636 187.153 32.3092C186.956 31.9721 186.619 31.6657 186.142 31.39L183.469 29.9958C182.361 29.4137 181.506 28.6987 180.905 27.851C180.314 26.993 180.019 25.9155 180.019 24.6184V23.1323C180.019 22.111 180.242 21.2173 180.687 20.4513C181.133 19.675 181.796 19.0724 182.677 18.6435C183.568 18.2145 184.645 18 185.909 18C187.121 18 188.173 18.1992 189.064 18.5975C189.955 18.9958 190.639 19.5525 191.116 20.2674C191.592 20.9824 191.83 21.8148 191.83 22.7646V23.7911C191.83 24.5163 191.634 25.0729 191.24 25.461C190.846 25.8389 190.276 26.0279 189.53 26.0279C188.795 26.0279 188.22 25.8491 187.805 25.4916C187.401 25.124 187.199 24.6235 187.199 23.9903V22.8872C187.199 22.448 187.09 22.1212 186.873 21.9067C186.666 21.6922 186.344 21.585 185.909 21.585C185.474 21.585 185.137 21.6871 184.899 21.8914C184.671 22.0854 184.557 22.3816 184.557 22.7799V24.0975C184.557 24.6286 184.671 25.0627 184.899 25.3997C185.127 25.7368 185.495 26.0381 186.002 26.3036L188.489 27.6212C189.722 28.2238 190.613 28.9694 191.162 29.8579C191.722 30.7465 192.001 31.8138 192.001 33.0599V34.8217C192.001 35.8839 191.768 36.8032 191.302 37.5794C190.836 38.3556 190.152 38.9531 189.251 39.3719C188.36 39.7906 187.277 40 186.002 40Z" fill="#191C1C"/>
<path d="M162.215 18.2758H166.629L167.375 33.5808L169.115 19.5933C169.177 19.1337 169.333 18.8018 169.581 18.5975C169.83 18.383 170.177 18.2758 170.623 18.2758H171.011C171.902 18.2758 172.405 18.7098 172.519 19.578L174.244 33.4889L174.99 18.2758H179.295L177.616 39.7242H172.006L170.763 28.5098L169.504 39.7242H163.878L162.215 18.2758Z" fill="#191C1C"/>
<path d="M155.103 40C153.787 40 152.658 39.7702 151.715 39.3106C150.782 38.8408 150.068 38.1616 149.57 37.273C149.083 36.3742 148.84 35.3018 148.84 34.0557V23.9443C148.84 22.6982 149.083 21.6309 149.57 20.7423C150.068 19.8435 150.782 19.1643 151.715 18.7047C152.658 18.2349 153.787 18 155.103 18C156.419 18 157.543 18.2349 158.475 18.7047C159.418 19.1643 160.133 19.8435 160.62 20.7423C161.117 21.6309 161.366 22.6982 161.366 23.9443V34.0557C161.366 35.3018 161.117 36.3742 160.62 37.273C160.133 38.1616 159.418 38.8408 158.475 39.3106C157.543 39.7702 156.419 40 155.103 40ZM153.689 34.6685C153.689 35.1792 153.808 35.5724 154.046 35.8482C154.295 36.1137 154.647 36.2465 155.103 36.2465C155.559 36.2465 155.906 36.1086 156.144 35.8329C156.393 35.5571 156.517 35.169 156.517 34.6685V23.3315C156.517 22.831 156.393 22.4429 156.144 22.1671C155.906 21.8914 155.559 21.7535 155.103 21.7535C154.647 21.7535 154.295 21.8914 154.046 22.1671C153.808 22.4327 153.689 22.8208 153.689 23.3315V34.6685Z" fill="#191C1C"/>
<path d="M142.61 18.2758C144.248 18.2758 145.512 18.6894 146.403 19.5167C147.304 20.3338 147.755 21.4981 147.755 23.0098V26.3343C147.755 27.2228 147.511 27.9787 147.024 28.6017C146.537 29.2145 145.859 29.6741 144.988 29.9805C145.496 30.2052 145.905 30.5423 146.216 30.9917C146.527 31.441 146.729 32.0334 146.822 32.7688L147.832 39.7242H142.89L142.051 32.6003C141.999 32.1305 141.927 31.7883 141.833 31.5738C141.74 31.3593 141.59 31.2112 141.383 31.1295C141.176 31.0478 140.849 31.007 140.404 31.007H140.373V39.7242H135.57V18.2758H142.61ZM141.585 27.5139C142.041 27.5139 142.383 27.3965 142.61 27.1616C142.849 26.9267 142.968 26.5896 142.968 26.1504V23.3008C142.968 22.8514 142.849 22.5144 142.61 22.2897C142.383 22.0548 142.041 21.9373 141.585 21.9373H140.373V27.5139H141.585Z" fill="#191C1C"/>
<path d="M129.11 18.2758C130.747 18.2758 132.012 18.6894 132.903 19.5167C133.804 20.3338 134.255 21.4981 134.255 23.0098V26.3343C134.255 27.2228 134.011 27.9787 133.524 28.6017C133.037 29.2145 132.359 29.6741 131.488 29.9805C131.996 30.2052 132.405 30.5423 132.716 30.9917C133.027 31.441 133.229 32.0334 133.322 32.7688L134.332 39.7242H129.39L128.551 32.6003C128.499 32.1305 128.427 31.7883 128.333 31.5738C128.24 31.3593 128.09 31.2112 127.883 31.1295C127.676 31.0478 127.349 31.007 126.904 31.007H126.873V39.7242H122.07V18.2758H129.11ZM128.085 27.5139C128.541 27.5139 128.883 27.3965 129.11 27.1616C129.349 26.9267 129.468 26.5896 129.468 26.1504V23.3008C129.468 22.8514 129.349 22.5144 129.11 22.2897C128.883 22.0548 128.541 21.9373 128.085 21.9373H126.873V27.5139H128.085Z" fill="#191C1C"/>
<path d="M114.365 40C113.049 40 111.92 39.7702 110.977 39.3106C110.044 38.8408 109.329 38.1616 108.832 37.273C108.345 36.3742 108.102 35.3018 108.102 34.0557V23.9443C108.102 22.6982 108.345 21.6309 108.832 20.7423C109.329 19.8435 110.044 19.1643 110.977 18.7047C111.92 18.2349 113.049 18 114.365 18C115.681 18 116.805 18.2349 117.737 18.7047C118.68 19.1643 119.395 19.8435 119.882 20.7423C120.379 21.6309 120.628 22.6982 120.628 23.9443V34.0557C120.628 35.3018 120.379 36.3742 119.882 37.273C119.395 38.1616 118.68 38.8408 117.737 39.3106C116.805 39.7702 115.681 40 114.365 40ZM112.95 34.6685C112.95 35.1792 113.07 35.5724 113.308 35.8482C113.557 36.1137 113.909 36.2465 114.365 36.2465C114.821 36.2465 115.168 36.1086 115.406 35.8329C115.655 35.5571 115.779 35.169 115.779 34.6685V23.3315C115.779 22.831 115.655 22.4429 115.406 22.1671C115.168 21.8914 114.821 21.7535 114.365 21.7535C113.909 21.7535 113.557 21.8914 113.308 22.1671C113.07 22.4327 112.95 22.8208 112.95 23.3315V34.6685Z" fill="#191C1C"/>
<path d="M90.8906 18.2758H97.1848L98.77 30.8384L100.34 18.2758H106.634V39.7242H102.407L102.469 24.266L100.278 38.5293C100.132 39.3259 99.6714 39.7242 98.8944 39.7242H98.5369C98.1639 39.7242 97.8583 39.6272 97.62 39.4332C97.3817 39.2289 97.2263 38.9276 97.1537 38.5293L94.978 24.4805L95.0401 39.7242H90.8906V18.2758Z" fill="#191C1C"/>
<path d="M83.1889 40C81.8731 40 80.7437 39.7702 79.8009 39.3106C78.8684 38.8408 78.1535 38.1616 77.6562 37.273C77.1693 36.3742 76.9258 35.3018 76.9258 34.0557V23.9443C76.9258 22.6982 77.1693 21.6309 77.6562 20.7423C78.1535 19.8435 78.8684 19.1643 79.8009 18.7047C80.7437 18.2349 81.8731 18 83.1889 18C84.5047 18 85.6289 18.2349 86.5613 18.7047C87.5042 19.1643 88.2191 19.8435 88.706 20.7423C89.2034 21.6309 89.452 22.6982 89.452 23.9443V34.0557C89.452 35.3018 89.2034 36.3742 88.706 37.273C88.2191 38.1616 87.5042 38.8408 86.5613 39.3106C85.6289 39.7702 84.5047 40 83.1889 40ZM81.7746 34.6685C81.7746 35.1792 81.8938 35.5724 82.1321 35.8482C82.3808 36.1137 82.733 36.2465 83.1889 36.2465C83.6448 36.2465 83.9919 36.1086 84.2302 35.8329C84.4788 35.5571 84.6031 35.169 84.6031 34.6685V23.3315C84.6031 22.831 84.4788 22.4429 84.2302 22.1671C83.9919 21.8914 83.6448 21.7535 83.1889 21.7535C82.733 21.7535 82.3808 21.8914 82.1321 22.1671C81.8938 22.4327 81.7746 22.8208 81.7746 23.3315V34.6685Z" fill="#191C1C"/>
<path d="M68.3327 21.9833H64.8359V18.2758H76.6007V21.9833H73.1194V39.7242H68.3327V21.9833Z" fill="#191C1C"/>
<path d="M51.3125 18.2758H61.0258V21.9833H56.0681V26.9624H58.477C59.3266 26.9624 59.7514 27.3761 59.7514 28.2034V29.383C59.7514 30.2205 59.3266 30.6393 58.477 30.6393H56.0681V36.0167H61.1035V39.7242H51.3125V18.2758Z" fill="#191C1C"/>
<path d="M40.3594 18.2758H50.0726V21.9833H45.115V26.9624H47.5239C48.3735 26.9624 48.7983 27.3761 48.7983 28.2034V29.383C48.7983 30.2205 48.3735 30.6393 47.5239 30.6393H45.115V36.0167H50.1504V39.7242H40.3594V18.2758Z" fill="#191C1C"/>
<path d="M33.8878 18.2758C35.5248 18.2758 36.7889 18.6894 37.6799 19.5167C38.5813 20.3338 39.032 21.4981 39.032 23.0098V26.3343C39.032 27.2228 38.7885 27.9787 38.3015 28.6017C37.8146 29.2145 37.136 29.6741 36.2656 29.9805C36.7733 30.2052 37.1826 30.5423 37.4934 30.9917C37.8042 31.441 38.0063 32.0334 38.0995 32.7688L39.1097 39.7242H34.1676L33.3284 32.6003C33.2765 32.1305 33.204 31.7883 33.1108 31.5738C33.0175 31.3593 32.8673 31.2112 32.6601 31.1295C32.4529 31.0478 32.1265 31.007 31.681 31.007H31.6499V39.7242H26.8477V18.2758H33.8878ZM32.8621 27.5139C33.318 27.5139 33.6599 27.3965 33.8878 27.1616C34.1261 26.9267 34.2453 26.5896 34.2453 26.1504V23.3008C34.2453 22.8514 34.1261 22.5144 33.8878 22.2897C33.6599 22.0548 33.318 21.9373 32.8621 21.9373H31.6499V27.5139H32.8621Z" fill="#191C1C"/>
<path d="M17.6226 18.2758V26.8705H20.3423V18.2758H25.129V39.7242H20.3423V30.578H17.6226V39.7242H12.8203V18.2758H17.6226Z" fill="#191C1C"/>
<path d="M3.49678 21.9833H0V18.2758H11.7647V21.9833H8.28348V39.7242H3.49678V21.9833Z" fill="#191C1C"/>
<circle cx="207.5" cy="12.5" r="12.5" fill="#191C1C"/>
<path fill-rule="evenodd" clip-rule="evenodd" d="M205.342 14.4469L199.499 12.3842L213.337 6.45424L207.406 20.2913L205.34 14.4483L205.342 14.4469Z" fill="white"/>
<path fill-rule="evenodd" clip-rule="evenodd" d="M205.342 14.4469L199.499 12.3842L213.337 6.45424" fill="#989898"/>
<path fill-rule="evenodd" clip-rule="evenodd" d="M199.499 12.3842L206.902 12.8894L207.406 20.2913L205.342 14.4497L199.499 12.3842Z" fill="#4D4D4D"/>
</g>
<defs>
<clipPath id="clip0_864_1658">
<rect width="220" height="58" fill="white"/>
</clipPath>
</defs>
</svg>
