<svg width="20" height="16" viewBox="0 0 20 16" fill="none" xmlns="http://www.w3.org/2000/svg">
<rect x="0.4" y="0.4" width="19.2" height="15.2" rx="7.6" stroke="#0090F7" stroke-width="0.8"/>
<path d="M6 7.6C5.77909 7.6 5.6 7.77909 5.6 8C5.6 8.22091 5.77909 8.4 6 8.4V7.6ZM14.2828 8.28284C14.4391 8.12663 14.4391 7.87337 14.2828 7.71716L11.7373 5.17157C11.581 5.01536 11.3278 5.01536 11.1716 5.17157C11.0154 5.32778 11.0154 5.58105 11.1716 5.73726L13.4343 8L11.1716 10.2627C11.0154 10.419 11.0154 10.6722 11.1716 10.8284C11.3278 10.9846 11.581 10.9846 11.7373 10.8284L14.2828 8.28284ZM6 8.4H14V7.6H6V8.4Z" fill="#0090F7"/>
</svg>
