<svg width="20" height="18" viewBox="0 0 20 18" fill="none" xmlns="http://www.w3.org/2000/svg"><path d="M4.33526 1.21162C6.62822 2.97119 9.09455 6.53886 10.0001 8.45349C10.9056 6.53901 13.3718 2.97116 15.6649 1.21162C17.3193 -0.0580136 20 -1.04038 20 2.08557C20 2.70987 19.6498 7.32999 19.4444 8.08004C18.7306 10.6878 16.1292 11.3529 13.8152 10.9503C17.86 11.654 18.8889 13.9848 16.6668 16.3156C12.4465 20.7423 10.601 15.205 10.1278 13.7861C10.0412 13.526 10.0006 13.4043 10 13.5078C9.9994 13.4043 9.95884 13.526 9.87215 13.7861C9.39925 15.205 7.55378 20.7424 3.33322 16.3156C1.11103 13.9848 2.13995 11.6538 6.18483 10.9503C3.87077 11.3529 1.26934 10.6878 0.555548 8.08004C0.350163 7.32991 0 2.7098 0 2.08557C0 -1.04038 2.68074 -0.0580136 4.33515 1.21162H4.33526Z" fill="#1185FE"/></svg>