<svg class="copylink-icon" width="15" height="15" viewBox="0 0 15 15" fill="#000" xmlns="http://www.w3.org/2000/svg"><path d="M2.10729 14.3H9.68896C9.95235 14.3 10.2132 14.2446 10.4565 14.137C10.6999 14.0295 10.921 13.8718 11.1072 13.673C11.2935 13.4742 11.4412 13.2382 11.542 12.9785C11.6428 12.7188 11.6947 12.4404 11.6947 12.1593V5.00948C11.6947 4.44174 11.4834 3.89725 11.1072 3.49579C10.7311 3.09434 10.2209 2.8688 9.68896 2.8688H2.10729C1.57534 2.8688 1.06517 3.09434 0.689027 3.49579C0.31288 3.89725 0.101563 4.44174 0.101562 5.00948V12.1593C0.101562 12.4404 0.153442 12.7188 0.25424 12.9785C0.355037 13.2382 0.502778 13.4742 0.689027 13.673C0.875277 13.8718 1.09639 14.0295 1.33973 14.137C1.58308 14.2446 1.8439 14.3 2.10729 14.3ZM0.903855 5.00948C0.903855 4.66883 1.03065 4.34214 1.25633 4.10127C1.48202 3.86039 1.78812 3.72507 2.10729 3.72507H9.68896C9.84699 3.72507 10.0035 3.7583 10.1495 3.82284C10.2955 3.88739 10.4282 3.982 10.5399 4.10127C10.6517 4.22054 10.7403 4.36213 10.8008 4.51796C10.8613 4.67379 10.8924 4.84081 10.8924 5.00948V12.1593C10.8924 12.5 10.7656 12.8267 10.5399 13.0675C10.3142 13.3084 10.0081 13.4437 9.68896 13.4437H2.10729C1.78812 13.4437 1.48202 13.3084 1.25633 13.0675C1.03065 12.8267 0.903855 12.5 0.903855 12.1593V5.00948Z" fill="black"/><path d="M14.1003 10.9391V2.8688C14.1003 2.18751 13.8468 1.53412 13.3954 1.05237C12.944 0.570629 12.3318 0.299988 11.6935 0.299988H3.22927C3.12288 0.299988 3.02085 0.345095 2.94562 0.425386C2.87039 0.505676 2.82812 0.614574 2.82812 0.728122C2.82812 0.841671 2.87039 0.950569 2.94562 1.03086C3.02085 1.11115 3.12288 1.15626 3.22927 1.15626H11.6935C12.119 1.15626 12.5271 1.33669 12.8281 1.65785C13.129 1.97901 13.298 2.4146 13.298 2.8688V10.9391C13.298 11.0527 13.3403 11.1616 13.4155 11.2419C13.4908 11.3222 13.5928 11.3673 13.6992 11.3673C13.8056 11.3673 13.9076 11.3222 13.9828 11.2419C14.0581 11.1616 14.1003 11.0527 14.1003 10.9391Z"/></svg>