<svg width="15" height="15" viewBox="0 0 15 15" fill="#000" xmlns="http://www.w3.org/2000/svg"><path d="M14.9813 0.202525C14.9775 0.193149 14.9756 0.183773 14.97 0.176272C14.955 0.144393 14.9363 0.112514 14.9119 0.0881361C14.8856 0.0618828 14.8556 0.0431303 14.8219 0.0281284C14.8144 0.024378 14.805 0.0206276 14.7975 0.0187524C14.7694 0.00937624 14.7413 0.00375051 14.7113 0.00187528C14.7056 0.00187528 14.7 0 14.6944 0C14.6644 0 14.6325 0.00375045 14.6025 0.0150019L0.206377 4.81373C0.0863777 4.85311 0.00387832 4.96562 0.000128351 5.09314C-0.00362162 5.22065 0.0751276 5.33504 0.193252 5.38192L6.99944 7.99975L9.61692 14.8069C9.66192 14.9231 9.77442 15 9.89817 15C9.90004 15 9.90192 15 9.90567 15C10.0332 14.9981 10.1438 14.9156 10.185 14.7937L14.985 0.393799C14.9944 0.363796 14.9981 0.333792 15 0.303788C15 0.296287 14.9981 0.290661 14.9981 0.28316C14.9962 0.256907 14.9906 0.230654 14.9813 0.202525ZM1.19449 5.12127L13.5825 0.991999L7.15882 7.41468L1.19449 5.12127ZM9.87942 13.8074L7.58631 7.84223L14.01 1.41768L9.87942 13.8074Z"/></svg>