<svg width="20" height="20" viewBox="0 0 20 20" fill="none" xmlns="http://www.w3.org/2000/svg"><path fill-rule="evenodd" clip-rule="evenodd" d="M8.2248 1.00191L8.76726 0.549976C9.14356 0.236729 9.51497 0 10.0012 0C10.485 0 10.8564 0.236729 11.2327 0.549976L11.7752 1.00191H8.2248ZM3.63103 1.71688H16.3714C17.1045 1.71688 17.7056 2.30512 17.7056 3.02487V8.27116C17.7056 8.39072 17.6518 8.49115 17.5541 8.5605L17.0947 8.88809C17.0263 8.93592 16.9407 8.94309 16.8674 8.90483C16.7917 8.86896 16.7477 8.79723 16.7477 8.71354V3.06552C16.7477 2.86944 16.584 2.70684 16.3812 2.70684H3.61882C3.41845 2.70684 3.25229 2.86944 3.25229 3.06552V8.71354C3.25229 8.79723 3.20831 8.86657 3.135 8.90483C3.05925 8.94309 2.97373 8.93592 2.90531 8.88809L2.44594 8.5605C2.3482 8.49115 2.29444 8.39072 2.29444 8.27116V3.02487C2.29444 2.30512 2.89554 1.71688 3.63103 1.71688ZM10.0012 20H1.46121C0.6573 20 0 19.3568 0 18.5701V9.03156C0 8.51985 0.0244349 7.8527 0.799023 7.20708L0.962737 7.07078C1.07269 6.97752 1.2193 6.95839 1.35125 7.01817C1.4832 7.07795 1.56384 7.1999 1.56384 7.34338V8.45529C1.56384 8.68962 1.66891 8.89527 1.86683 9.03396L2.21869 9.28264L9.1289 14.3161C9.65425 14.6987 10.3458 14.6987 10.8736 14.3161L17.7813 9.28264L18.1356 9.03396C18.3311 8.89527 18.4362 8.68962 18.4362 8.45529V7.34338C18.4362 7.1999 18.5168 7.07795 18.6487 7.01817C18.7807 6.95839 18.9273 6.97752 19.0397 7.07078L19.201 7.20708C19.9756 7.8527 20 8.51985 20 9.03156V18.5701C20 19.3568 19.3427 20 18.5388 20H10.0012Z" fill="#2D33E0"/></svg>