<svg class="shareSVG" width="12" height="12" viewBox="0 0 12 12" fill="#000" xmlns="http://www.w3.org/2000/svg"><path d="M11.9997 0.374735V3.17512C11.9997 3.27458 11.9602 3.36996 11.8899 3.44029C11.8196 3.51062 11.7242 3.55013 11.6247 3.55013C11.5253 3.55013 11.4299 3.51062 11.3595 3.44029C11.2892 3.36996 11.2497 3.27458 11.2497 3.17512V1.28023L6.58427 5.94512C6.55007 5.98237 6.50868 6.01232 6.4626 6.03317C6.41652 6.05401 6.36669 6.06531 6.31613 6.06639C6.26557 6.06747 6.2153 6.0583 6.16837 6.03945C6.12144 6.02059 6.07881 5.99244 6.04305 5.95668C6.00729 5.92091 5.97913 5.87828 5.96028 5.83135C5.94142 5.78442 5.93226 5.73416 5.93334 5.6836C5.93442 5.63303 5.94572 5.58321 5.96656 5.53713C5.9874 5.49104 6.01735 5.44966 6.05461 5.41545L10.7195 0.750017H8.72634C8.62688 0.750017 8.5315 0.710507 8.46117 0.64018C8.39084 0.569852 8.35133 0.474467 8.35133 0.375009C8.35133 0.27555 8.39084 0.180165 8.46117 0.109837C8.5315 0.0395097 8.62688 0 8.72634 0H11.625C11.7244 3.62748e-05 11.8197 0.0395288 11.8899 0.109797C11.9602 0.180066 11.9997 0.27536 11.9997 0.374735ZM11.625 5.62485C11.5757 5.62482 11.5269 5.63449 11.4814 5.65332C11.4359 5.67215 11.3945 5.69977 11.3596 5.7346C11.3248 5.76942 11.2971 5.81077 11.2783 5.85629C11.2594 5.90181 11.2497 5.95059 11.2497 5.99986V11.2497H0.750017V0.750017H5.92609C6.02555 0.750017 6.12094 0.710507 6.19126 0.64018C6.26159 0.569852 6.3011 0.474467 6.3011 0.375009C6.3011 0.27555 6.26159 0.180165 6.19126 0.109837C6.12094 0.0395097 6.02555 0 5.92609 0H0.374735C0.27536 3.62748e-05 0.180066 0.0395288 0.109797 0.109797C0.0395288 0.180066 3.62998e-05 0.27536 2.49958e-08 0.374735V11.625C-1.796e-05 11.6742 0.00966966 11.723 0.0285092 11.7685C0.0473488 11.814 0.074971 11.8554 0.109797 11.8902C0.144624 11.925 0.185972 11.9527 0.231478 11.9715C0.276984 11.9903 0.325757 12 0.375009 12H11.625C11.6742 12 11.723 11.9903 11.7685 11.9715C11.814 11.9527 11.8554 11.925 11.8902 11.8902C11.925 11.8554 11.9527 11.814 11.9715 11.7685C11.9903 11.723 12 11.6742 12 11.625V5.99986C12 5.9004 11.9605 5.80502 11.8902 5.73469C11.8198 5.66436 11.7244 5.62485 11.625 5.62485Z"/></svg>