<svg width="20" height="20" viewBox="0 0 20 20" fill="none" xmlns="http://www.w3.org/2000/svg"><path d="M6.17468 1.82817C5.69503 2.69995 5.29988 3.72999 5.00206 4.86309C4.2521 4.71665 3.57194 4.54073 2.97237 4.34414C3.82945 3.27971 4.92343 2.4148 6.17377 1.82804L6.17468 1.82817ZM13.8255 1.82817L13.8265 1.82915C15.0778 2.41492 16.1707 3.27983 17.0279 4.34329L17.0269 4.34427C16.4264 4.54084 15.7472 4.71678 14.9972 4.86322C14.6994 3.73097 14.3043 2.70093 13.8256 1.82905L13.8255 1.82817ZM10.4895 0.991764H10.4905C11.1038 1.02518 11.6985 1.11953 12.2725 1.26894H12.2735C12.989 2.15154 13.6092 3.4381 14.0378 5.02749L14.0368 5.02848C12.9654 5.1877 11.7781 5.28794 10.4914 5.30859L10.4895 0.991764ZM9.50858 5.30839V5.30937C8.22098 5.28775 7.03364 5.1875 5.96321 5.02827L5.96125 5.02729C6.38979 3.43802 7.01001 2.15239 7.72555 1.26874C8.29955 1.11836 8.8952 1.02499 9.50755 0.991562L9.50858 5.30839ZM2.37658 5.17374L2.37756 5.17472C3.10196 5.42829 3.91188 5.6406 4.78076 5.8116C4.54192 6.97824 4.40137 8.22942 4.37188 9.51002L0.990566 9.50903C1.07608 7.91878 1.57257 6.4406 2.37658 5.17374ZM5.737 5.97771H5.73799C6.93418 6.16052 8.21391 6.26568 9.51133 6.28732L9.51034 9.51019H5.35177C5.38027 8.2374 5.51493 7.0511 5.73607 5.97783L5.737 5.97771ZM14.2627 5.97673V5.97771C14.4839 7.05098 14.6195 8.2373 14.647 9.51007H10.4895L10.4875 6.28719C11.7849 6.26557 13.0646 6.1604 14.2609 5.97758L14.2627 5.97673ZM17.6224 5.17374H17.6234C18.4264 6.44065 18.9238 7.92182 19.0083 9.511L15.627 9.51001C15.5985 8.22937 15.4579 6.97831 15.2181 5.81159C16.087 5.64058 16.898 5.42734 17.6224 5.17374ZM9.50858 13.7129V13.7139C8.21214 13.7345 6.93247 13.8397 5.73726 14.0225C5.5161 12.9492 5.37849 11.7629 5.35096 10.4901L9.51054 10.4892L9.50858 13.7129ZM14.6492 10.49C14.6207 11.7628 14.4841 12.9491 14.2629 14.0224C13.0668 13.8396 11.788 13.7344 10.4906 13.7128L10.4896 10.4899L14.6492 10.49ZM4.37396 10.493C4.40247 11.7726 4.54204 13.0209 4.78187 14.1894H4.78089C3.91299 14.3594 3.1011 14.5727 2.3767 14.8262C1.57269 13.5593 1.0773 12.0822 0.992777 10.4918L4.37396 10.493ZM19.0084 10.49C18.9238 12.0793 18.4265 13.5604 17.6225 14.8263C16.8981 14.5717 16.0862 14.3594 15.2183 14.1894C15.4581 13.0208 15.5967 11.7725 15.6252 10.492L19.0084 10.49ZM14.9972 15.137C15.7482 15.2834 16.4264 15.4604 17.0269 15.6579C16.1698 16.7214 15.0759 17.5863 13.8245 18.1721V18.173C14.3042 17.2993 14.6994 16.2691 14.9972 15.137ZM5.00302 15.137C5.29986 16.2692 5.69596 17.3003 6.17463 18.1729C4.92338 17.5862 3.82942 16.7213 2.97222 15.6568C3.57277 15.4593 4.25195 15.2833 5.00191 15.1369L5.00302 15.137ZM10.4914 14.6918H10.4924C11.78 14.7114 12.9673 14.8127 14.0388 14.9719V14.9739C13.6102 16.5631 12.988 17.8498 12.2725 18.7324L12.2715 18.7334C11.6975 18.8818 11.1019 18.9752 10.4895 19.0086L10.4914 14.6918ZM9.50951 19.0084C8.89814 18.975 8.30152 18.8826 7.72752 18.7332H7.72654C7.01097 17.8496 6.38881 16.5631 5.96027 14.9739V14.9719C7.03163 14.8127 8.22095 14.7125 9.50865 14.6918L9.50951 19.0084ZM9.99899 0C4.47612 0 0 4.4769 0 9.9995C0 15.5221 4.47612 20 9.99899 20C15.5219 19.999 20 15.5221 20 9.9995C20 4.4769 15.5229 0 10 0H9.99899Z" fill="black"/></svg>